<svg xmlns="http://www.w3.org/2000/svg" width="100" height="100" viewBox="0 0 248.3 261.9"><path fill="#fff" d="M116.1 233.5h-.3l-.9-.1h-.8l-.7-.2-.7-.1-.8-.2-.7-.1-1-.2-.8-.3-1-.3-.9-.3-.6-.3-.7-.3-.8-.3-.7-.4-.8-.4-.7-.4-.8-.5-.8-.5-.6-.4-.7-.5-.6-.5-.6-.4-.7-.7-.7-.6-1.2-1.2-1.1-1.3-.6-.7-.5-.6-.5-.8-.5-.7-.5-.7-.5-.8-.4-.6-.3-.6-.4-.7-.3-.7-.4-.8-.3-.8-.3-.7-.2-.7-.3-.6-.2-.7-.2-1-.3-.9-.2-1-.2-.9-.2-1-.1-.9v-.7l-.2-.8v-72.9h-.1l-1.3.5-1.2.5H85l-.2.1-.1.2-.1.3-.9.9-.9 1-.8.8-.8.9-.3.2-.3.2h-.3l-.3.2-1.4.2-1.5.3-1.3.2-1.4.2-1 .2-1 .2-.5.2-.5.2h-.3l-.2.1h-.5l-.6.1h-1l-.3-.2h-.3l-.4-.2-.3-.2-.3-.3-.3-.3-.4-.2-.4-.3-.4-.1-.4-.2H65l-.3-.1h-1.3l-.3.1-.4.1-.4.1-.5.1h-.9l-.3-.2h-.4l-.4-.3-.4-.2-.4-.4-.5-.3-.7-.7-.7-.6-.2-.2-.2-.2-.2-.4-.2-.3-.2-.5-.1-.4v-.4l-.1-.5v-.5l.1-.4.2-.6.2-.5v-.3l.1-.4v-1.1l-.1-.3-.1-.2-.2-.3-.1-.2-.2-.2-4.5-4.8-4.6-4.8.1-.1.1-.1 2-2.7 2-2.6 1-1.2.9-1.2v-.2l.2-.3v-.3l-.2-.4-.2-.5v-.3l-.2-.3v-.8l.1-.3.2-.3.2-.3.2-.2.4-.3.3-.2.5-.3.5-.2.5-.2.4-.1h1l.2.1.2.1.3.3.2.3.4.4.3.5 1.7-1.2 1.7-1.3v-.4l.3-.5.2-.5v-.4l.3-.4.4-.3-.3-.3-.2-.2v-.5l.2-.3.1-.3.6-.6.6-.6.4-.3.4-.4.4-.2.4-.3h.2l.3-.1h2l.1-.1v-1.2l-.2-1.2-.2-1.2v-3.2l.1-.4.2-.4.2-.4.2-.3.2-.3.3-.3.3-.2.4-.3.5-.2-.5-.3-.4-.2-.2.2-.1.1-.2.2-.2.2-.3-.1h-.3l-.6-.3-.5-.3-2.4-1-2.3-1.2-.4-.2-.4-.2-.3-.3-.3-.4-.2-.4-.2-.4V82l-.1-.4v-.8l.2-.2v-.3l.3-.2.2-.2.3-.2.4-.2h.4l.3-.1h.4l.4.1h.2l.3.2.8.3.8.3.8.4.8.4 1 .6 1.2.6 1.4.8 1.3.8.7.4.8.5h.2l.3.2v-.3l.3-.7.2-.6v-.6l.2-.5v-.7l.2-.4.2-.4.2-.4.2-.4.4-.4.4-.5.4-.2.4-.2.3-.2.3-.2h.4l.3-.2h1.5l.4.2.3.1.4.2.3.2.4.2.4.5.4.4.3.5.3.4.1.4.2.4.1.5.1.5V84l-.1.4-.2.4-.1.2-.2.3-.2.3-.3.2-.3.2-.3.2-.5.1-.5.2-.3.2-.2.1-.2.3-.3.2 1.5 1 1.4.8h.2l1-.6 1-.7.4.5.4.5.3-.3.2-.3.5-.6.6-.5.3-.3.4-.2.2-.1.3-.1h1.4l.3.1.3.2.3.2.3.2.2.2.2.3.3.4.1.3.2.3v.3l.2.4v.5l.1.5v1.1l-.1.4-.1.4-.2.3v.6l1.8 3.4 1.8 3.3 1.3 2.6 1.3 2.5.1.1.8-.6.7-.7.6-.4.6-.5.6-.4.6-.4.8-.5.8-.4.8-.5.8-.4.7-.3.8-.4.7-.2.7-.3.7-.3.8-.2.4-.1.5-.1.7-.2.7-.2.9-.1.9-.2h.7l.7-.1h.8l.8-.1h3.5l.7.1.7.1.7.1.6.1.8.2.7.2.7.1.6.2.8.3.7.2.8.3.7.2.7.4.7.3.9.5.9.4.6.4.6.4.6.4.6.4.7.5.7.5.6.5.6.5.6.6.6.5.7.8.8.8.5.6.5.6.5.7.5.6.5.7.4.7.4.7.4.6.3.6.3.5.4.7.3.7.3.7.3.6.2.8.3.7.4 1.1.3 1.2.3 1 .2.9.2 1 .1.9.1.9.1.8.1.6v78.3l-.1 1-.1.9-.1.8-.2.7-.1.9-.2.8-.3.9-.2.9-.2.7-.3.7-.3.8-.3.8-.3.8-.3.7-.4.8-.5.8-.3.6-.3.6-.5.7-.4.7-.5.8-.6.7-.5.7-.6.7-1.1 1.2-1.2 1.2-.7.6-.7.7-.6.4-.6.5-.6.5-.7.4-.8.5-.7.5-.7.4-.7.3-.6.3-.7.4-.7.3-.7.2-1 .4-1.1.4-.8.2-.8.2-.9.2-.9.2-1 .1-.9.2h-1.1l-1.6.1h-1.5zm2-4h.3l-.7-.6-.7-.5-.6-.5-.6-.6-1-.7-.8-.7-1-.7-1-.7-.5-.3-.5-.3-.8-.5-.8-.4-.8-.4-.7-.3-.8-.3-.7-.3-.7-.2-.7-.2-.7-.2-.7-.2-.8-.2-.8-.1-.9-.1-.9-.1h-1l-1-.1.3.4.3.4.7.7.7.7.6.6.7.5.5.5.6.4.6.4.6.4.5.4.4.3.7.3.6.4.6.3.7.3.8.3.7.3.8.3.8.3 1 .3 1 .2.9.2.8.1.8.1.7.1h2.4zm4.4-.4.6-.1.7-.2.8-.2.6-.2.6-.2-.1-.2-.2-.2-1.2-1-1-.8-2.2-1.9-2-1.8-1-.8-1-.8-.9-.7-.8-.7-.7-.5-.7-.5-.6-.4-.6-.4-.7-.4-.7-.4-.8-.4-.8-.4-.7-.3-.8-.3-.7-.3-.8-.3-.8-.2-.8-.2-.7-.1-.8-.2-.8-.1-.7-.1h-.7l-.6-.1h-3.7l-.7.1h-.7l-.8.2-.7.2v.4l.3.3.3.7.4.8.5.7.5.8h4.7l.7.2h.7l.7.2 1 .2 1 .2.8.3.8.2.8.3.8.3.6.3.7.2 1 .6 1.2.6.8.5.8.6.7.4.7.5.9.7.9.6.8.7.9.8 1.2 1 1.2 1 .5.5.5.4h.1zm6.9-2.5.8-.4.5-.3.5-.3 1-.6.8-.7-.3-.3-.4-.2-.5-.3-.5-.3-.8-.5-.7-.5-.7-.5-.7-.5-.6-.5-.7-.6-1-.8-1-.9-2-1.8-2.1-1.8-1-.8-1-1-1-.6-.9-.7-1-.8-1.1-.7-.9-.5-.8-.5-.9-.5-.9-.5-.6-.2-.7-.3-.8-.3-.8-.3-1-.2-1-.3-.6-.1-.8-.2h-.7l-.8-.2h-5.3l-.7.1-.8.2-.8.1-.6.1-.5.2-.7.2-.7.1-.7.3-.8.3.2.9.2.9.3 1.2.4 1.1h.8l.7-.2 1-.1.9-.2h.8l.8-.1h3.5l.7.1.7.1.6.1h.5l.8.2.7.2.8.2.8.2.7.3.8.2.7.3.8.3.7.3.7.4.7.3.7.4.7.5.7.4.8.5.7.5.5.4.6.5.8.6.8.6.9.7.8.7 2.3 2 2.3 2 .8.7.8.7.9.7 1 .8zm6.4-4.7.6-.7.6-.6.5-.7.6-.7.6-.8h-.1l-.7-.3-.7-.3-.6-.3-.7-.3-.9-.5-1-.5-.9-.6-1-.6-.7-.5-.7-.5-1-.8-1-.8-.9-.7-.8-.8-2.2-1.9-2.2-1.9-.9-.7-1-.8-.9-.8-1-.8-1-.7-1.1-.8-.9-.5-.8-.5-.9-.4-.8-.5-.8-.3-.8-.3-.7-.3-.7-.2-.7-.2-.7-.2-.7-.1-.7-.2h-.7l-.7-.2h-.8l-.9-.2h-3.1l-.8.1-.9.1-.7.1-.7.1-.7.2-.7.1-.8.2-.7.2-.8.3-.8.3-.7.3-.8.3-.4.2-.3.2v3l.1.5v.6l.7-.2.7-.2.7-.2.8-.2.8-.2 1-.2.6-.1.7-.1.9-.1.8-.1h4.5l.9.2h.7l.6.2.7.1.7.2.8.2 1 .2.7.3.8.3.8.3.8.3.7.4.7.3.7.4.7.4.8.5.7.5 1 .6 1 .7 1 .8.9.7 1 1 1 .8 2 1.7 2 1.7 1 .8 1 .9 1 .8.9.7.6.4.6.5.8.5 1 .6.8.5.8.4h.1zm4.6-6.3.4-.7.3-.7.4-.8.3-.7.2-.7.3-.7.2-.7.2-.8.3-.8.1-.6.2-.7-.6.2-.5.1-.7.4-.7.3-.6.2-.6.3-.6.4-.7.4-.6.4-.6.4-.8.5-.8.6-.8.6-.9.7.7.4.6.4 1 .5.8.5.9.4.8.3.7.3.7.2zm-6-6 .7-.5.7-.4.7-.5.7-.4.7-.4 1-.6 1.1-.5.7-.3.8-.3.8-.3.8-.3h.3l.3-.1v-1l.1-.7v-2.8l-.7.2-.7.2-.9.3-.8.3-.8.3-.8.4-1 .5-1 .5-.7.5-.8.5-.6.4-.5.4-.8.6-.8.6-1 .7-.8.8-1 .9-1 .9.5.5.6.5.8.6.8.6 1-.8 1-.8zm-6.6-2.3.7-.7 1-.8 1-.8.8-.6.8-.7.7-.5.8-.6.6-.4.6-.4.5-.3.5-.3.8-.5.8-.4.6-.3.7-.4.7-.3.8-.3.8-.3.9-.3.9-.2.8-.2h.2v-5.5h-.2l-.6.1-.5.1-.8.2-.8.3-.8.2-.9.3-.7.3-.8.4-1 .5-1 .5-.7.4-.6.5-.6.3-.5.4-.7.5-.6.4-.8.6-.8.6-1 .9-1 .8-2.3 2-2.3 2v.1l1.7 1.5 1.6 1.5zm-5.2-4.6.7-.6 1.8-1.6 1.8-1.5 1-.9 1-.8.8-.7.9-.7.7-.5.8-.6.8-.5.9-.6.8-.4.8-.5.6-.3.6-.3.6-.3.6-.2.7-.3.7-.3.9-.3.9-.2.7-.2.8-.2.6-.1.7-.1v-5.4h-.4l-.8.2h-.7l-.7.2-.7.2-.8.2-.8.2-.8.3-.8.3-.6.3-.7.2-.9.5-1 .5-.6.4-.6.3-.7.5-.6.4-.7.6-.8.5-.7.6-.8.6-.9.7-.8.8-2.2 1.8-2 1.9-1.2 1-1 .8-1 .7-.8.7-.3.2-.3.2v.1l1 .7.9.7 1 .7.8.7h.1zm-6-4.2.7-.5.6-.5.6-.4-.2-.2-.2-.1-.7-.5-.6-.5-.8-.5-.8-.5-.8-.5-1-.5-.7-.3-.7-.4-.7-.3-.6-.2-.8-.3-.8-.3-.6-.2-.7-.2-.8-.1-.7-.2h-.7l-.7-.2h-.5l-.5-.1h-4.7l-.5.1-.7.1-.7.1-1 .2-1 .2-.9.3-1 .3-.7.3-.7.3h-.3l-.2.2v5.2h.1l.7-.3.7-.3.9-.3.8-.3 1-.2.8-.2.7-.2.6-.1.6-.1.7-.1h.7l.8-.2h4.6l.7.1h.7l.7.2.7.1.6.1.6.2 1 .2.8.2.8.3.8.3.8.3.7.3.8.4.8.4zm5-4 1-1 .3-.2.2-.2-1-.8-1-.7-.9-.7-.8-.7-1-.6-.9-.7-1-.6-1-.6-1.2-.7-1.2-.6-.6-.3-.7-.2-.8-.3-.8-.3-.7-.2-.6-.2-.8-.1-.7-.2-.8-.1-1-.1-.6-.1h-4.6l-.8.1-.7.1-.7.1-.5.1-.5.1-.7.2-.7.2-.8.3-.8.2-.7.3-.6.2-.7.3-.7.3v3.6l.7-.2.7-.3.8-.2.8-.3.8-.2.7-.1.9-.2.8-.1.7-.1.7-.1h.7l.7-.1h3.5l.7.1 1 .1.9.2.8.1.8.2.8.2.9.2.5.2.6.2.6.2.6.3.6.2.6.3 1 .5.9.5.6.4.6.3.7.5.8.4 1 .8 1 .7.2.2.3.2zm4.5-4 1.1-.9.7-.5.6-.5-.5-.4-.5-.4-2.7-2.2-2.8-2.2-1-.7-1.1-.8-.8-.5-.8-.6-.9-.5-.8-.5-.7-.4-.8-.4-.7-.3-.7-.3-.6-.3-.6-.2-.9-.3-.9-.3-.7-.1-.7-.2-.7-.1-.7-.1-.7-.1-.7-.1h-.9l-.9-.1h-2.1l-.8.1-.8.1-.7.1-.7.1-.7.2-.8.1-.7.2-.7.2-.8.3-.7.2-.8.4-.8.3-1 .5-1 .6v4.2l.7-.3.7-.3.7-.2.7-.3.7-.2.8-.2.8-.2.7-.1.9-.2.8-.1h.7l.8-.2h4.6l.7.1h.7l1 .3 1.1.2 1 .2 1 .3.8.2.8.3.8.3.8.4.7.3.7.4.6.3.7.4.7.4.7.4.6.4.6.4 1 .7.9.7.6.4.6.5 1.3 1 1.4 1zm5.4-4 .6-.4.8-.5 1-.5.5-.3.6-.3h.1l-.4-.3-.3-.2-.8-.5-.7-.5-1-.7-1.1-.8-.6-.4-.7-.5-2.8-2.2-2.8-2.2-1-.7-.9-.8-1-.6-1-.7-.6-.4-.6-.4-.6-.4-.6-.3-.8-.4-.8-.4-.7-.3-.6-.3-.5-.2-.5-.1-.7-.3-.8-.2-.7-.2-.8-.2-.7-.1-.7-.1-.7-.1-.7-.1h-.9l-.9-.1H104l-.8.1-.8.1-.8.1-.8.2-.8.2-.8.1-.6.2-.7.2-1 .3-.8.4-.7.3-.7.3-.9.4-.9.5-.6.4-.7.4v4l.7-.2.6-.3.8-.3.8-.4.8-.3.9-.3.8-.2.7-.2.8-.1.7-.2.7-.1.7-.1h.7l.7-.2h4.8l.8.1.9.1.7.2.8.1.7.2.8.2.7.2.6.2.8.3.7.2.8.4.7.3.7.3.6.3.7.4.7.4 1 .6.8.6 1.2.8 1 .8 1.1.7 1 .8 2.2 1.8 2.2 1.7.8.6.9.7.1-.1.1-.1zm7.3-3.4.5-.2.7-.1.6-.2.7-.1.8-.1.8-.1.8-.2h.1v-56l-.2-.8v-.8l-.2-.8-.2-.8-.2-1-.2-.8-.3-.8-.2-.8-.3-.7-.3-.8-.3-.7-.4-.8-.4-.8-.4-.7-.3-.7-.4-.6-.5-.7-.4-.7-.5-.6-.5-.6-.4-.6-.5-.6-.8-.8-.8-.8-.6-.5-.6-.5-.5-.4-.5-.4-.5-.4-.6-.4-.7-.5-.8-.4-.5-.4-.6-.3-.6-.3-.7-.3-.6-.2-.6-.3-.6-.2-.7-.2-.7-.3-.7-.2-.7-.1-.6-.2-.8-.1-.7-.1-.7-.1-.7-.1h-1l-1.1-.1h-2.2l-.7.2h-.7l-.7.2-.8.1-.6.2-.7.1-.8.3-.7.2-.7.2-.7.3-.5.2-.5.2-.7.4-.7.3-.5.3-.5.3-.5.3-.6.3-.6.5-.7.4-.6.5-.6.5-.6.6-.6.5-.1.1-.1.1 1 2 1 1.8v-.2l.3-.6.2-.6.2-.4.1-.3.3-.4.2-.3.3-.3.3-.3.3-.2.3-.2.4-.2.3-.2.5-.1.5-.2h2.3l.5.2h.4l.4.3.4.1.3.2.3.2.3.3.2.2.3.3.3.4.3.3.2.4.1.4.2.4.2.4.1.5.1.5v2.4l-.2.4v.3l-.2.3-.2.3-.1.4-.3.4-.2.4-.6.6-.5.6v1.4l-.2.2-.2.4-.2.3-.3.3-.2.3v.4l.1.5.2.5v1.2l-.2.3-.2.2v.1l.4-.1.3-.1.5-.2.6-.2h.4l.4-.1h1.1l.3.1.3.2.2.1.3.3.2.2.2.3.2.3.3.5.2.5.2.5.2.5v.4l-.1.4v.3l.2.1.3.2.3.2.3.3.3.4.2.3.2.3.2.3v.3l.2.4.1.4.1.4v.9l.2.2.3.1.3.3.3.2.3.4.3.4.2.5.2.5.2.4v.3l.1.7v.6l.3.1.2.2.2.1.2.2.3.3.2.2.2.3.2.4.1.2.2.2v.3l.1.3.1.3.1.3v1.2l.4.3.4.2.4.5.5.5.2.4.3.4.1.4.2.5v1.4l.3.2.3.2.2.2.2.1.3.3.2.3.2.3.2.3.2.3v.3l.2.3.1.4v1.4l.4.3.4.3.3.3.3.3.3.5.4.5.2.3.1.4.1.3.1.3v.8l-.1.3-.1.2-.2.3-.2.3-.5.5-.5.6v.9l.1.3v.8l-.1.4-.2.3-.2.4-.3.3-.2.3v.1l-.1.2v.3l.6 1 .7 1 .8 1.2.7 1.2.1.3.1.4.3 1.1.3 1.2.4 1.8.4 1.8.3 1.3.2 1.3v.2h-.4l-1-1.1-.9-1.1-.7-.9-.7-.9-.9-1-.8-1.1-.4-.5-.3-.4-.2-.5-.3-.4-1.4-3-1.4-3-.2-.3-.1-.2h-.3l-.4.1-.3.1-.5.1-.6.1h-.9l-.2-.1-.2-.1-.2-.3-.2-.2-.2-.4-.3-.4-.2-.4-.2-.4-.2-.4-.3-.3-.1-.4-.2-.3v-.9l-.3-.3-.3-.3-.3-.4-.2-.3-.3-.4-.2-.4-.2-.4-.2-.5-.1-.3-.1-.4v-.9l-.3-.1-.2-.2-.4-.4-.3-.3-.3-.4-.2-.4-.2-.5-.3-.5v-.3l-.2-.3v-1.2l-.3-.1-.2-.1-.3-.4-.4-.3-.2-.4-.3-.4-.2-.5-.3-.4-.1-.5-.2-.5v-1l-.3-.1-.2-.2-.3-.3-.4-.4-.3-.5-.4-.5-.1-.4-.2-.4-.1-.5-.1-.4v-.8l-.4-.2-.2-.2-.4-.4-.3-.3-.3-.5-.3-.5-.2-.3-.1-.4-.1-.3-.1-.3-.1-.3v-.9l-.7-.7-.7-.7-.5-1-.5-1.1-.1-.4v-.9l.1-.3.2-.2.6-.7.6-.6.4-.3.4-.4.1-.2.1-.2-.1-.1h-1.2l-.2-.2-.3-.2-.3-.3-.2-.4-.2-.5h-.1l-.2-.2h-.3l-.3.1-.4.2h-.4l-.5-.1h-.2l-.2-.2-.5-.3-.4-.2-.2-.1-.3-.1h-.7l-.3.2h-.2l-.2.2-1 .5-1 .6-.3.3-.4.2-.3.4-.3.3v.2l-.1.1-.2.4-.1.3-.2.3-.2.2-.3.3-.3.2-.4.2-.4.2-.4.1-.3.2v40l.9-.5.8-.5.8-.3.8-.4.8-.3.9-.3.6-.2.5-.2.6-.2.6-.1.8-.2.9-.2h.6l.7-.2h.7l.7-.2h5.3l.8.2.9.1.7.2.8.1 1 .3.8.2.8.3.8.2.8.4.8.3.8.4.8.4.7.4.7.4.7.4.7.5.7.4.7.5.7.5.6.4.8.6.8.6 2.6 2.1 2.7 2.1 1 .8 1 .7.7.6.8.5.9.5.8.6 1.1.6 1.2.5zm-9.7-47.7h-.2l-.4-.1h-.4l-.4-.2-.4-.1-.4-.2-.4-.2-.4-.2-.4-.3-.4-.3-.4-.3-.4-.5-.4-.4-.3-.5-.3-.5-.2-.4-.2-.4-.1-.5-.2-.4-.1-.5-.1-.4v-2.4l.1-.6.1-.4.2-.5.1-.4.2-.4.2-.5.3-.4.3-.4.3-.5.4-.4.5-.4.4-.3.5-.3.3-.2.3-.2.4-.1.4-.2.5-.1.5-.2h2.5l.6.2.5.1.4.2.5.2.4.3.4.2.2.2.3.2.3.3.4.3.3.5.3.4.2.3.2.3.3.5.2.5.1.4.2.5v.4l.2.5v2.1l-.1.5-.1.5-.1.5-.2.5-.2.4-.2.4-.2.4-.3.4-.3.4-.5.5-.5.5-.4.4-.4.3-.5.2-.4.2-.5.2-.4.2h-.5l-.5.2h-1.6zm-57.4-.6.5-.1h.3l.2-.2v-.2h.1l.2-.1h.3l.3-.4.3-.3.6-.3.6-.3.1.2.2.2v.2l.2.1h.2l.2.2.2.2h.8-.6l-.2-.1-.2-.1v-.4l.2.2.2.2H79l.1-.1.1-.1v-.2l-.4-.2-.4-.2-.3-.3-.2-.3v-.9l-.3-.6-.2-.6-.2-.5-.2-.6v-.1h-.2v-.3l-.2-.1-.2-.6-.2-.5-.2-.9-.2-.9-.1-.3-.2-.3-.2-.3-.2-.4-.2-.3-.3-.2-.3-.3-.2-.2-.3-.1-.2-.2h-.3l-.3-.2h-2.3l-.6.2-.6.2-.2.1-.2.2-.1.2v1.3l.1.1.3.3.4.2.2.1.3.1h.4l.2.2.2.3.2.4v.2H71l-.4.5-.4.5-.3.4-.3.5-.7.9-.7.9-.3.5-.2.4-.1.3v1.1l.2.3.3.3.2.3.4.2.4.3.2.1.3.1h.4l.3.1h1zM73 132l-.2-.1v-.2l-.1-.1H72l-.1-.2-.1-.1v-.2l.4-.7.4-.6.2-.3.2-.2.2-.2h.2l.2.2.2.2.2.2v.1l.2.2h.3l.2.1.1.4.2.4v.3l-.1.1-.1.2H74l-.2.1-.2.1v.2l-.2.1v.1H73Zm-3.1-18.5.4-.1.3-.2.3-.2.2-.3.2-.2v-.3l.2-.3v-1.5h-.3v-2l.3.2.2.2.4.2.3.2.3.1.3.2h.2l.2.2h.2l.1.2h.5l.3.2v-.1l-.2-.2v-.1l.3.1.3.2.7.3.7.3.6.2.6.2.2.1v1l.2.2.2.1.2.1.2.1h1l.3-.1h.2v-.2h.1l-.1-.4-.2-.3v-.3l.1-.5.1-.5v-.6l.1-.5v-1.4l.1-1.3v-.2l-.2-.2-.2-1.2-.2-1.2v-.3l-.1-.4-.2-.2-.1-.2-.2-.2-.5-.2-.4-.2-.4-.1-.4-.1h-.6l-.2.2-.3.1-.3.3-.3.2h-.1l-.1.2.3.6.4.6v.8l.1.7v.6l.2.6v.8l.1.7-.5-.2-.4-.3-.7-.6-.7-.5-.5-.6-.5-.5-.6-.8-.5-.8-.6-.8-.5-.9-.2-.1-.2-.1-.3-.2-.3-.1h-1.3l-.6.2-.7.3-.8.3h-.1v1.8l.1.2.2.2h.2l.1.2h.1v2.8l-.1 1v3.9l.1.3.2.2v.2l.3.1.2.2h.2l.2.1h1.2zm6-2.9-.2-.1-.2-.1-.5-.2-.4-.1.4.2.3.1.3.1.3.2zm-2.7 106.6h-.4l-.6-.4-.7-.3-.4-.3-.3-.2-.3-.3-.3-.3-.2-.3-.2-.3-.2-.5-.2-.4-.1-.4-.1-.4v-1.8l.1-.3.1-.4.2-.4.2-.3.1-.3.2-.2.3-.4.3-.3.3-.4.4-.3.4-.2.4-.3.1-.2.8-.2.9-.2h1.4l.4.1.4.2.4.1.3.1.3.1.3.2.1.1.2.2v.7l-.2.2-.2.2h-.6l-.1-.3-.2-.3-.2-.1-.3-.2h-.4l-.3-.2h-1.1l-.3.1-.4.2-.3.2v.1l-.2.1-.2.2-.2.2-.3.3-.2.3h.1l.1-.1v-.2l.3-.2.2-.2-.2.2-.2.3-.2.4-.2.5v.3l.1.2h1.5l.6-.1.1.1h3l.3.2v.1l.2.1v.4l-.1.2v.1l-.3.2-.2.2-.4.2-.3.2h-.4l-.4-.2-.4-.2h-.7l-.7.1h-1.8v.4l.1.4v.4l.2.3.1.2.3.3.3.3.3.1.3.2.3.1.3.1h.7l.5-.1.5-.2.5-.2.6-.2h.6l.2.2v.1l.2.2v.5l-.2.2-.1.3-.3.2-.3.2-.6.3-.6.3h-.3l-.2.1-.4.1h-1.5zM69.8 198h-.3l-.2-.2h-.2v-.2H69v-.5l.2-.3.1-.3v-.2l.1-.3v-7.1h-.1l-.3-.1-.1-.1-.2-.1-.2-.2-.1-.2v-.3l.2-.2.1-.2h.2l.2-.1.3-.1h1.4l.3.1h.3l.1.2h.1l.3.4.2.3v1.2l.5-.4.4-.4.3-.2.3-.3.3-.2.4-.2.3-.1.3-.2h.3l.3-.1h1.3l.3.1.2.2.3.2.2.3.2.3v.3l.2.3v1l-.1.4-.2.3-.1.3-.3.4-.3.4-.6.5-.6.5-.2.2-.2.2-.1.1-.2.1v.2l1 1.1 1.2 1.2v.1l.2.2.2.2h.8v.2h.1v.1l-.3.2-.4.1-.4.2-.4.1h-.6l-.3-.1-.3-.2-.5-.3-.4-.4-.6-.6-.6-.6-.5-.5-.4-.5v-.1l-.1-.2.2-.1.2-.2.2-.2.3-.1.3-.3.3-.2h-.1l-.2.1-.1.1-.2.1-.2.2.2-.2.2-.1.5-.5.6-.5.4-.5.5-.4v-.2l.2-.3v-.4l-.2-.2-.1-.2-.2-.3-.2-.2h-.2l-.1-.1-.5.2-.5.1-.2.2-.2.1-.3.3-.4.4-.2.4-.3.3-.3.4-.2.3v5.7l-.3.1-.2.2h-1.1l-.6.1zm.2-21.7-.4-.1-.2-.1-.3-.2-.3-.2-.2-.2-.2-.2-.1-.3v-.2l-.1-.2v-.3l.3-.5.3-.4.7-1 .7-.9.4-.4.4-.5h.2-.1l.4-.7.5-.6v-.3l-.1-.2-.3-.5-.3-.4h-.1l-.1-.1-.3-.1-.3-.1-.2-.1H70l-.2-.3-.3-.1v-.8l.6-.2.6-.1H73l.2.1.3.1.3.2.3.2.3.4.3.3.3.4.2.5.2.4.2.4.1.4.2.5.3.7.3.8.2.2.2.3v.3l.3.6.2.6.2.6.2.5.2.3.2.2.2.2.3.2.3.2.1.1v.2l-.1.1h-2.6l-.2-.2-.3-.4-.3-.3v-.2l-.1-.1-.1-.1-.1-.1H75h.1l.1.1h.1v.3-.1l-.1-.2H75l-.2.2-.2.1-.5.3-.4.2-.4.3-.3.3h-.5l-.3.2h-1.9zm3.2-2h.1l.3-.2h.6l.2-.2h.2v-.2l.2-.1-.1-.3-.1-.3-.3-.5-.2-.5v.3l-.1-.2-.2-.2v-.2l-.1-.2h-.1l-.1-.2-.1-.2-.1-.1h-.1l-.1.1-.1.2-.1.2-.4.5-.5.6h-.2.1v.2l-.2.3-.2.4-.2.2-.1.2v.2l.3.1.2.1h.8v.1h.5zm-1.4-17.2h-.2l-.2-.1-.2-.1-.3-.2-.3-.1-.5-.3-.4-.4-.4-.3-.3-.3v-.2l-.2-.3-.2-.4-.1-.4-.2-.4v-1.9l.1-.2v-.3l.1-.3.2-.3.2-.4.2-.4.4-.4.4-.4.4-.3.3-.3.4-.3.4-.2.5-.3.6-.3.5-.1.4-.2.4-.1.4-.1.6-.1.5-.1h1.9l.4.2.3.1.3.2.3.2.1.2.2.2v.3l.2.2v1.1l-.2.2v.3l-.3.2-.3.3-.3.2-.3.2h-.3l-.3.1h-.6l-.1-.2-.2-.1v-1l-.2-.2-.2-.2-.2-.1-.2-.1h-1.9l-.3.2h-.3l-.2.2-.4.1-.3.2-.3.3-.3.2-.2.4-.2.3v.3l-.2.2v1.2l.1.3.2.3.1.4.2.3.2.3.4.4.4.3.3.2.3.2h1.3l.4-.1.3-.1.5-.3.4-.2.1-.1.2-.1v-.8l.2-.7h-.1l-.1-.2h-.2l-.8.2-.8.2h-.4l-.1-.2-.2-.2v-.5l.2-.2.2-.2h.2l.2-.2.8-.1.9-.1.5-.1h1.6l.1.2.1.1.1.1v4.9l-.1.1-.2.1-.2.1h-.4l-.4.1h-.4l-.2-.2-.1-.2v-.8l-.1-.1h-.2l-.3.2-.4.3-.5.2-.4.2-.7.2-.7.2h.4l.3-.1h.2l-.5.2h-1l-.5.1z"/></svg>